<?xml version="1.0" encoding="UTF-8"?>
<!DOCTYPE svg PUBLIC "-//W3C//DTD SVG 1.0//EN" "http://www.w3.org/TR/2001/REC-SVG-20010904/DTD/svg10.dtd">
<!-- Creator: CorelDRAW 2019 (64-Bit) -->
<svg xmlns="http://www.w3.org/2000/svg" xml:space="preserve" width="210mm" height="266mm" version="1.0" style="shape-rendering:geometricPrecision; text-rendering:geometricPrecision; image-rendering:optimizeQuality; fill-rule:evenodd; clip-rule:evenodd"
viewBox="0 0 21000 26600"
 xmlns:xlink="http://www.w3.org/1999/xlink"
 xmlns:xodm="http://www.corel.com/coreldraw/odm/2003">
 <defs>
  <style type="text/css">
   <![CDATA[
    .str0 {stroke:#00246B;stroke-width:282.22;stroke-miterlimit:22.9256}
    .fil0 {fill:none}
    .fil2 {fill:#00246B;fill-rule:nonzero}
    .fil1 {fill:#DEB500;fill-rule:nonzero}
   ]]>
  </style>
 </defs>
 <g id="Слой_x0020_1">
  <metadata id="CorelCorpID_0Corel-Layer"/>
  <g id="_1724468807696">
   <g>
    <path class="fil0 str0" d="M20104.18 22638.29c0,1115.08 -1011.5,1580.01 -1783.71,1580.01l-6163.03 0c-791.94,43.77 -1073.85,768.23 -1341.62,1278.9 -252.16,-535.19 -576.67,-1265.43 -1363.07,-1278.9l-6556.01 0c-1160.33,0 -1892.05,-898.34 -1892.05,-1927.69l0 -20813.22 19099.49 -0.03 0 21160.93z"/>
    <g>
     <path class="fil1" d="M20104.18 1475.3l0 21162.99c0,1115.08 -1011.5,1580.01 -1783.71,1580.01l-6163.03 0c-589.91,13.47 -1016.96,552.64 -1341.62,1278.9 -319.06,-611.96 -428.5,-1278.9 -1363.07,-1278.9l-6556.01 0c-1160.33,0 -1892.05,-898.34 -1892.05,-1927.69l0 -20813.22 19099.49 -2.09zm0 2.06l0 -2.06 0 2.06z"/>
    </g>
    <path class="fil2" d="M17650.84 19713.4l1239.4 -17.74c228.59,-49.02 265.07,-284.89 199.88,-453.41 620.21,-259.87 206.1,-741.11 481.68,-784.82 -8.45,-85.25 -90.09,-176.32 -184.91,-207.03 81.24,0.15 201.05,-78.42 211.76,-153.85 -496.6,-186.34 -359.26,-947.66 -345.82,-1671.04 -955.63,-583.67 -936.62,-1172.01 -1357.21,-2111.71 -148.74,-332.35 -396.66,-788.74 -763.46,-1134.42 -286.35,-269.86 -771.08,-1144.63 -45.75,-1149.54l1252.14 -8.53c824.86,-5.6 1142.46,-395.62 1141.45,-1012.72 -0.73,-460.61 -243.42,-929.57 -1034.23,-927.8l-3331.11 7.4c-10.21,-184.65 -472.21,-418.14 -772.08,5.83 -1016.18,-100.16 -1144.41,-962.16 -189.94,-1270.54 -138.44,5.08 -871.23,-50.32 -981.84,200.3 -82.74,-93.78 -447.34,-338.59 -659.15,-102.75 -147.1,-84.98 -597.92,-158.03 -641.49,-5.74 -146.59,-140.19 -873.78,-119.81 -1106.9,-125.3 734.94,459.1 444.76,1713.85 1849.56,1715.94l1794.83 2.67c98.24,254.59 529.94,280.05 690.64,-32.6l3346.98 12.72c394.96,-6.94 568.26,272.12 561.84,512.26 -9.05,338.13 -305.88,545.91 -747.85,546.26l-2906.66 2.32c19.07,-77.09 77.96,-188.57 70.27,-324.6 -172,192.54 -296.6,232.94 -562.19,233.15 -519.64,0.43 -969.25,7.4 -1487.5,9.52 36.63,-95.06 53.64,-178.24 -28.29,-276.4 -77.76,197.13 -468.82,175.22 -654.52,175.92l-2691.71 10.1c10.27,-80.49 7.87,-134.99 -20.2,-193.62 -240.17,301.56 -549.97,220.14 -627.99,51.28 -59,-127.67 -12.65,-339.22 282.14,-281.7 348.75,68.06 434.58,-82.66 453.44,-226.62 58.43,-445.77 -448.44,-280.1 -609.76,-279.12 -735.11,4.44 -578.93,-679.12 128.29,-435.26 584.59,201.59 1049.44,-400.97 436.63,-850.89 20.34,-140.45 -19.13,-248.68 -57.44,-359.23l-1038.47 -4.18c-322.59,-490.03 -866.12,-230.1 -977.37,-139.66 -709.86,-535.6 -1149.39,154.9 -1747.19,-523.15 -203.34,492.65 33.37,959.2 25.8,960.57 -477.12,86.43 -656.78,505.44 -655.5,835.53 -75.46,135.51 -157.05,217.24 -297.61,228.13 43.27,95.69 106.37,157.6 249.2,116.61 -183.08,230.05 -412.05,690.22 -479.97,1086.94 -120.53,172.14 -277.26,354.52 -414.16,423.6 145.43,37.06 263.85,52.65 462.86,-62.55 -248.73,275.79 -258.92,489.34 -199.04,824.65 -92.38,260.29 -268.87,512.85 -402.62,590.98l485.13 -3.22c-4.67,80.37 -5.02,160.76 0.35,241.19l-1558.31 5.6c-108.2,-340.27 -477.61,-636.66 -1004.3,-552.23 50.93,-1416.5 -99.09,-2757.8 778.41,-4348.3 -220.11,-17.36 -415.56,18.89 -595.19,77.64 -61.18,-265.95 -315.14,-714.27 -416.89,-791.3 -19.07,-14.43 -374.03,435.44 -464.76,803.23 -172.92,-75.14 -353.27,-86.84 -594.26,-101.93 234.72,603.4 807.7,1489.23 825.58,4520.55 -618.35,13.81 -572.4,521.67 -369.82,798.96 -297.96,287.39 -279.73,628.28 -53.43,887.92 -96.24,338.85 84.66,629.03 397.83,758.77l5.83 795.6c154.29,-1.48 310.58,-2.94 466.87,-4.5l1.63 -771.07c227.28,-30.65 505.39,-199.43 773.94,-419.83 37.5,70.18 72.74,194.83 13.5,307.71 58.25,-0.53 392.72,-29.37 524.34,-215.88l-7.83 177.07c149.21,7.32 525.27,-84.4 552.55,-371.73 221.42,213.44 585.93,386.36 1106.29,378.18l0.12 224.12c202.09,22.03 305.68,48.38 459.5,-98.57 282.11,329.48 328.72,830.22 147.3,886.33 -2.47,37.64 152.26,-8.04 243.45,109.56l-1026.48 1759.5c-210.42,240.17 -400.96,367.91 -721.01,579.61 -656.11,10.01 -1139.58,156.78 -1089.31,999.89 129.7,9.52 423.63,-48.5 568.4,-147.7 12.82,37.85 41.82,130.05 56.74,167.87 113.51,-4.67 401.36,0.29 556.35,-131.97l18.66 119.09c216.2,-8.89 370.17,-17.07 638.99,-133.05 616.46,159.69 1201.69,-1.25 1021.05,-687.31 224.76,45.1 470.5,-7.66 597.71,-232.97 -87.04,-39.97 -150.57,-143.93 -137.05,-221.54 264.58,32.22 436.96,-81.85 508.99,-246.7 -96.15,2.21 -223.86,-81.64 -199.91,-371.91 880.05,-382.59 1243.17,-863.45 1643.32,-1149.83 260.78,274.45 633.35,104.98 732.9,-12.63 -8.44,-92 -4.06,-184.59 -68.26,-258.39 198.58,79.17 364.22,96.59 625.92,-16.66 1.17,-81.56 10.45,-76.13 -20.81,-195.04 71.69,25.36 187.87,42.87 368.23,9.2 -0.87,-156.18 -30.88,-302.4 -66.61,-354.85 1247.73,-71.36 1847.5,-424.41 2502.77,-638.92 -17.16,1391.36 1126.46,1963.36 1033.99,2626.73 -39.53,283.41 -514.76,679.38 -819.22,884.75 -857.39,-10.56 -1044.65,399.52 -1022.15,954.24 202.5,16.03 437.65,-40.22 598.84,-131.04l37.99 144.16c394.9,-40.4 881.48,-56.77 1243.12,-294.06 290.29,291.16 922.75,263.99 751.19,-381.09 184.21,-23.45 390.51,-263.09 167.87,-438.25 124.08,22.58 281.36,-36.34 347.33,-206.42 -108.17,-114.35 -209.79,-232.8 -172.55,-385 69.16,-282.72 443.48,-180.58 555.83,-541.43 -552.9,-360.48 -315.02,-1370.47 -36.97,-2049.57 263.3,562.65 616.78,853.24 1545.16,1318.81 642.76,26.58 1861.72,1186.83 332.93,1968.88 -454.57,-16.63 -1141.76,179.36 -668.79,952.47l318.65 -80.78c-14.05,37.56 19.68,92.59 69.25,132.38l630.54 -136.06 -0.29 105.56z"/>
    <path class="fil1" d="M18402.03 18899.11c8.04,0.2 36.05,-23.1 37.7,-32.25 14.43,-80.51 -79.84,-85.15 -474.28,-79.17 -182.93,2.78 -284.98,-11.73 -412.22,-54.71 105.71,-219.6 583.26,-229.26 660.41,-783.56 59.49,-427.46 -260,-743.47 -612.81,-1079.44 -350.14,-333.43 -795.19,-469.98 -1136.36,-602.56 -831.5,-323.21 -1028.02,-1517.85 -1839,-1761.68 -252.01,-75.75 -460.08,-86.96 -574.03,-70.73 -176.03,25.02 -365.93,85.21 -560.88,180.35 -923.97,450.8 -2277.81,1077.53 -3563.53,1123.04 598.32,-447.46 694.86,-821.46 714.82,-1342.63 270.74,-2.5 1153.75,19.56 1161.12,-738.19l1014.35 1.19c1165.83,1.36 1405.56,-243.05 1435.28,-773.08 476.77,-110.08 621.86,-399.1 639.1,-801.4 264.9,-32.27 404.62,-250.65 447.2,-475l3032.07 11.78c1002.86,3.89 935,-1278.26 108.06,-1279.33l-3648.63 -4.67c-68.75,-38.66 -89.48,-115.55 -6.99,-175.71 254.31,-11.7 265.42,13.55 3632.14,-9.78 631.15,29.89 914.3,435.32 911.08,858.43 -3.05,398.44 -339.55,790.23 -995.63,834.4l-1694.69 2c-268.9,-2.38 -448.62,119.44 -458.08,382.48 -24.53,679.24 1214.84,1269.99 1458.99,1941.33 80.05,220.09 186.39,559.14 364.28,882.87 164.36,299.12 314.85,650.37 457.73,926.15 132.32,255.38 282.92,362.97 147.32,586.95 -37.73,62.31 -75.14,75.83 -179.89,81.84 -416.51,23.98 -1228.71,-499.7 -1767.16,-1489.29 272.53,792.2 838.73,1307.92 1384.81,1658.59 218.6,140.38 419.04,199.97 563,265.62 399.19,182.13 492.3,615.19 482.6,771.42 -36.77,591.24 171.01,825.58 34.05,941.12 -25.14,21.19 -111.42,58.4 -167.93,73.03 -122.31,31.66 -138.18,-31.7 -122.54,-249.17 8.65,-120.54 41.44,-403.66 52.59,-773.71 -247.66,437.06 -344.39,851.81 -224.76,1244.3 47.8,7.43 117.37,55.29 129.56,120.33 34.45,183.69 -368.69,305.47 -555.45,321.26 -220.93,18.7 -467.28,-90.4 -497.9,-266.49 -29.93,-172.23 99.37,-379.08 624.5,-365.93z"/>
    <path class="fil1" d="M17524.56 18856.04c73.98,-5.26 181.89,12.39 285.04,46.06 -79.5,-0.06 -150.72,31.26 -227.69,323.09 -23.25,88.2 -77.67,180.06 -163.84,187.84 -41.33,3.74 -114.82,9.72 -139.95,-2.41 -81.47,-39.3 -162.07,-154.4 -167.67,-248.5 -8.86,-148.51 143.49,-286.9 414.11,-306.08z"/>
    <path class="fil1" d="M17246.89 18877.17c-471.84,53.66 -128.23,480.08 -489.89,467.02 -143.7,-5.17 -164.05,-72.01 -155.57,-163.09 20.63,-222.23 406.68,-361.72 645.46,-303.93z"/>
    <path class="fil1" d="M13521.7 18797.24c-172.98,-45.4 -243.34,-50.88 -403.72,-42.03 625.29,-426.33 840.44,-759.99 843.83,-1046.57 5.37,-455.84 -1830.87,-2213.6 -302.8,-2805.71 324.08,328.49 836.66,655.73 1335.29,158.9l10.39 2319.86c-510.12,-7.54 -690.65,-450.94 -833.27,-1026.83 -6.12,806.43 118.59,1022.86 465.22,1281.6 95.29,71.14 102.37,152.46 98.97,240.09 -3.94,101.17 -34.71,210.77 -167.55,322.65 -106.66,89.8 -284.87,804.8 -200.29,1045.46 24.12,68.73 19.47,165.76 -8.51,192.08 -82.68,83.59 -195.18,90.41 -271.8,25.08 -135.22,-115.25 -60.95,-622.56 278.48,-1140.14 -359.84,289.31 -518.6,722.49 -573.22,970.64 -46.76,41.33 -396.58,134.61 -614.05,157.8 -314.71,33.52 -454.54,-125.82 -447.72,-276.07 16.69,-367.21 496.48,-321.99 735.69,-261.59 93.4,23.6 144.16,27.98 160.18,-25.95 15.33,-51.54 -60.08,-77.46 -105.12,-89.27z"/>
    <path class="fil1" d="M12347.05 19506.46c-303.58,-223.83 -8.85,-562.45 276.08,-573.34 -19.86,43.39 -25.92,101.76 -23.05,163 7.84,167.12 3.25,354.67 -253.03,410.34z"/>
    <path class="fil1" d="M5980.89 19371.47c68.35,-1526.79 1036.89,-2318.24 2200.66,-3140.45 -300.72,7.92 -522.05,-56.65 -696.98,-277.55 -62.95,410.3 -189.84,636.98 -559.92,847.66 2.41,-322.65 -100.98,-595.19 -213.94,-864.73 -207.51,242.12 -1216.26,1939.77 -1351.28,2236.39 229.72,-89.25 353.89,-216.81 779.78,-199.62 68.58,2.75 30.76,49.74 -12.45,58.62 -325.85,67.08 -939.79,193.88 -1421.93,755.32 99.7,106.16 231.96,157.3 534.27,189.4 -367.91,46.96 -425.08,198.85 -424.97,318.66 0.15,172.31 233.53,275.2 502.64,220.34 95.4,25.4 516.44,66.15 664.12,-144.04z"/>
    <path class="fil1" d="M4830.65 19006.09c-288.64,-26.35 -206.56,442.61 -471.06,450.82 -35.64,1.11 -61.06,0.09 -97.2,-2 -404.93,-272.44 124.22,-671.26 568.26,-448.82z"/>
    <path class="fil1" d="M4281 18956.2c-480.29,-86.7 -714.74,160.67 -691.98,315.72 9.49,64.43 46.4,114.93 126.28,119.89 23.3,1.43 48.03,1.57 73.02,1.46 145.35,-3.11 115.86,-142.98 138.12,-212.84 48.45,-151.96 109.16,-221.13 354.56,-224.23z"/>
    <path class="fil1" d="M14486.91 18612.91c76.83,-9.29 225.8,53.6 212.89,289.94 -162.59,3.28 -240.61,-90.03 -212.89,-289.94z"/>
    <path class="fil1" d="M6469.15 18451.53c101.47,90.67 57.58,186.95 243.94,322.4 -669.95,-82.11 -508.98,-559.17 -243.94,-322.4z"/>
    <path class="fil1" d="M19209.32 18304.04c119.17,-32.19 189.44,13.52 213.94,123.46 -71.37,36.02 -167.01,8.83 -213.94,-123.46z"/>
    <path class="fil1" d="M14695.07 18172.88c97.31,-8.48 224.7,132.37 204.7,289.68 -201.34,32.25 -227.22,-193.15 -204.7,-289.68z"/>
    <path class="fil1" d="M7047.33 18330.13c-189.52,69.05 -398.35,-32.48 -352.78,-175.51 101.35,-318.1 288.84,109.42 352.78,175.51z"/>
    <path class="fil1" d="M19194.9 17954.91c102.8,-53.2 170.42,5.22 228.09,110.41 -84.95,77.92 -194.72,17.35 -228.09,-110.41z"/>
    <path class="fil1" d="M6823.88 17621.25c561.95,-571.82 986.6,-940.77 1677.3,-1382.07 196.15,-14.4 344.95,-26.15 585.47,-85.28 -197.48,256.78 -2092.03,1444.11 -2262.77,1467.35z"/>
    <path class="fil1" d="M8891.76 16430.18c148.48,-50.82 366.04,52.97 364.07,234.51 -172.95,38.78 -282.95,-10.88 -364.07,-234.51z"/>
    <path class="fil1" d="M6742.06 15595.43c90.26,5.95 157.77,64.61 249.4,128.66 4.21,98.07 8.39,196.26 12.63,294.33l40.05 -0.9c-7.9,-83.99 11.11,-128.51 35.55,-201.22 68.56,16.52 68.56,16.52 109.22,43.65 14.31,99.9 -7.46,561.41 -187.78,565.44 -2.27,-101.09 -235.15,-564.71 -259.07,-829.96z"/>
    <path class="fil1" d="M9357.79 16025.76c223.51,-14.45 352.46,1.31 375.8,139.23 9.31,54.91 1.54,87.68 2.38,145.96 -223.19,15.94 -267.72,-41.97 -378.18,-285.19z"/>
    <path class="fil1" d="M9790.44 15899.48c122.51,1.31 332.24,-1.88 396.61,263.65 -262.81,11.41 -321.49,-90.14 -396.61,-263.65z"/>
    <path class="fil1" d="M2017.82 16153.27l-3.63 -884.18 198.58 -139.72 -0.55 1023.78 -194.4 0.12z"/>
    <path class="fil1" d="M6263.37 15990.82c-230.33,-335.16 -399.07,-610.66 -128.54,-801.34 -22.55,447.92 237.03,491.4 137.63,351.85 -59.62,-83.67 -119.15,-256.28 69.83,-472.97 48.5,92.96 78.8,202.5 76.91,332.26 -3.69,256.95 -22.26,397.98 -155.83,590.2z"/>
    <path class="fil1" d="M7493.66 15156.94c-34.57,-473.03 388.07,-938.97 641.77,-1276.02 -78.83,387.14 -232.63,956.85 -127.13,1322.14 59.65,206.47 270.21,476.95 577.6,565.32 -147.61,54.16 -295.2,64.09 -429.26,54.16 -341.14,-25.16 -639.07,-337.92 -662.98,-665.6z"/>
    <path class="fil1" d="M8080.14 13865.3c-338.48,401.37 -1203.85,917.38 -511.2,1820.83 -1134.04,-366.31 -1023.17,-1527.14 511.2,-1820.83z"/>
    <path class="fil1" d="M8167.76 13882.92c140.74,645.72 427.55,1690.92 1412.67,1364.34 -144.63,228.48 -485.57,474.16 -753.31,430.69 -311.16,-50.56 -518.74,-284.03 -601.95,-527.19 -140.21,-409.73 -76.27,-929.16 -57.41,-1267.84z"/>
    <path class="fil1" d="M8234.43 13863.01c989.76,755.57 1330.59,979.05 1845.32,600.18 -40.54,385.81 -339.37,735.6 -762.39,740.02 -478.89,5.02 -1035.51,-997.95 -1082.93,-1340.2z"/>
    <path class="fil1" d="M13819.6 14834.08c331.8,-86.95 262.31,-85.65 473.63,-262.95 177.22,14.28 469.96,49.83 526.03,255.58 -221.71,223.6 -670.16,330.09 -999.66,7.37z"/>
    <path class="fil1" d="M6256.38 14351.97c164.33,-764.63 1055.99,-561.06 1818.36,-563.47 -320.45,78.77 -885.14,154.73 -1165.42,442.64 -242.11,248.71 -366.25,572.73 -225.6,935.21 -248.79,-68.73 -488.47,-529.98 -427.34,-814.38z"/>
    <path class="fil1" d="M3338.28 14925.19c116.15,-76.36 225.14,-96.39 342.68,-67.54 -14.04,138.18 -190.48,238.2 -319.29,267.28 13.32,-39.36 47.14,-104.43 -23.39,-199.74z"/>
    <path class="fil1" d="M3836.12 14897.03c83.16,-40.08 248.27,-96.88 332.67,-30.33 -3.89,70.27 -193.82,224.65 -317.63,235.42 47.07,-92.76 23.71,-159.4 -15.04,-205.09z"/>
    <path class="fil1" d="M5684.67 15039.42c-52.1,-70.38 -457.15,-798.52 -9.9,-1005.49 -141.78,475.75 222,604.65 146.57,494.88 -153.85,-223.86 -93.51,-392.28 76.91,-532.84 113.43,260.92 85.91,887.97 -213.58,1043.45z"/>
    <path class="fil1" d="M2371.62 15047.67c139.75,-110.41 211.29,-313.86 196.87,-506.87 632.89,335.37 948.52,-392.72 1696.75,-616.87 262.98,-78.77 138.93,-294.13 -106.72,-105.88 -413.07,316.53 -637.42,356.61 -688.1,296.94 -125.03,-147.35 477.94,-589.03 755.26,-597.36l783.14 -8.04c33.99,355.89 174.96,310.84 -6.12,826.97 -28.59,81.44 -10.01,98.07 14.98,109.33 95.25,43.04 133.94,-208.04 354.43,-230.85l-0.72 669.89c-871.81,-286.98 -1448.83,-324.92 -1590.73,-316.41 -553.54,33.14 -790.08,588.6 -1409.04,479.15z"/>
    <path class="fil1" d="M1759.25 14886.38c-176,-158.15 310.35,-622.76 485.48,-459.47 182.26,169.99 -288.99,636.02 -485.48,459.47z"/>
    <path class="fil1" d="M8245.08 13786.01l2016.94 5.66c-116.85,601.66 -423.31,747.76 -756.62,699.12 -543.87,-79.41 -1259.25,-697.53 -1260.32,-704.78z"/>
    <path class="fil1" d="M3009.91 13579.19c-830.46,392.95 -922.84,-412.69 -584.89,-524.03 757.29,-249.54 1260.88,941.04 592.06,1276.58 -214.95,107.82 -532.1,36.02 -560.71,-124.95 -85.51,-481.03 469.63,-329.65 553.54,-627.6z"/>
    <path class="fil1" d="M2250.12 14099.81c-546.74,666.7 -1076.02,65.13 -352.95,-284.11 187.4,-28.15 330.4,115.89 352.95,284.11z"/>
    <path class="fil1" d="M10576.7 14054.13c86.66,-84.14 92.38,-216.78 51.28,-399.6l1016.5 4.24c-22.82,185.55 -340.22,396.43 -605.26,396.03l-462.52 -0.67z"/>
    <path class="fil1" d="M5294.3 13966.25c-156.35,-283.74 -265.3,-845.55 135.92,-960.31 -150.84,427 -4.5,596.03 46.7,563.96 3.45,-19.85 1.3,-42.17 -3.8,-66.52 -27.14,-129.19 -83.16,-343.21 214.57,-565.56 132.2,433.82 -151.85,880.17 -393.39,1028.43z"/>
    <path class="fil1" d="M2046.23 13188.59c125.04,148.04 104.4,331.79 -109.33,489.54 -402.15,-73.11 -528.87,-663.69 109.33,-489.54z"/>
    <path class="fil1" d="M5960.51 13497.16c31.78,-1065.45 1057.48,-1978.42 2085.73,-1980.22 1143.18,-1.98 2180.46,1029.18 2219.76,1971.78l-4305.49 8.44z"/>
    <path class="fil1" d="M12173.72 13366.41c120.36,-44.29 251.32,-103.64 248.1,-350.52l1640.97 -10.65c-196.81,337.03 -523.97,359.03 -865.52,359.55l-1023.55 1.62z"/>
    <path class="fil1" d="M11595.22 13298.7l-1056.89 0.29c-27.2,-199.28 -56.16,-279.09 -155.6,-367.44l1790.96 10.83c-58.3,224.15 -282.83,355.04 -578.47,356.32z"/>
    <path class="fil2" d="M6154.07 13380.03l1115.12 -952.91 474.27 498.63 951.63 -883.92 1445.82 1329.69 -3986.84 8.51z"/>
    <path class="fil1" d="M7828.13 13013.37l848.82 -830.22 937.44 827.26 -1786.26 2.96z"/>
    <path class="fil1" d="M6748.21 13009.42l498.02 -432.19 432.89 435.04 -930.91 -2.85z"/>
    <path class="fil1" d="M2071.92 13057.05c-39.07,-2515.31 -219.48,-3501.53 -843.86,-4529.78 352.29,85.94 925.5,625.72 995.33,1632.87l0.85 -1186.17c261.32,-324.6 413.82,-350 817.21,-415.44 -515.22,491.92 -798.78,952.67 -799.86,1642.04l-4.44 2857.03 -165.23 -0.55z"/>
    <path class="fil1" d="M12585.86 12681.72c148.92,-63.77 282.14,-147.62 276.89,-380.74l1848.22 -6c-145.9,291.51 -490.44,378.09 -781.69,384.07l-1343.42 2.67z"/>
    <path class="fil1" d="M11926.59 12554.19l-1714.02 -4.04c-52.07,-195.56 -149.3,-300.05 -301.3,-389.79l2739.89 11.15c-48.18,276.57 -483.53,383.23 -724.57,382.68z"/>
    <path class="fil1" d="M5468.39 12611.07c122.56,-174.69 327.35,-936.24 779.28,-928.9 72.65,1.16 -508.55,380.59 -229.98,545.27 80.8,47.74 155.71,-324.69 365.81,-557.92 303.01,664.2 -472.3,925.18 -915.11,941.55z"/>
    <path class="fil1" d="M5003.19 12606.69c-32.36,-539.75 47.63,-848.25 439.02,-909.92 -238.2,400.09 -136.94,535.05 -82.98,539.69 18.31,1.57 30.24,-30.44 21.76,-90.58 -26.26,-186.39 79.73,-382.01 305.16,-451.32 -14.66,214.46 -99.64,490.68 -176.67,541.76 -48.58,32.19 -223.94,387.46 -506.29,370.37z"/>
    <path class="fil1" d="M13019.24 11935.17c136.56,-86.87 272.39,-171.1 285.01,-344.16l1922.5 -2.7c-81.64,324.77 -575.77,338.41 -981.23,340.5l-1226.28 6.36z"/>
    <path class="fil1" d="M11998.28 11864.24l-2130.6 3.48c147.64,-120.04 183.14,-260.34 176.23,-381.75l3032.65 2.61c-256.71,371.16 -664.55,373.74 -1078.28,375.66z"/>
    <path class="fil1" d="M8756.3 11350.95c36.46,-31.84 79.56,-39.04 122.57,-26 113.22,34.3 208.1,205.54 371.33,193.93 -267.57,-163.08 -269.83,-541.43 22.43,-502.08 -118.06,300.92 110.84,453.06 266.32,458.95 92.76,3.52 206.94,-24.46 359.58,-95.51 -271.2,548.66 -1412.93,207.02 -1142.23,-29.29z"/>
    <path class="fil1" d="M5705.36 11254.33c110.09,-345.7 325.82,-829.67 769.13,-672.48 -21.42,9.2 -183.52,118.22 -277.29,232.72 -98.07,119.78 -141.81,249.34 -98.94,290.46 85.36,81.88 178.9,-564.68 743.41,-499.41 -130.87,196.52 -458.55,516.74 -537.93,572.26 -170.16,119 -380.58,160.79 -598.38,76.45z"/>
    <path class="fil1" d="M6449.73 11386.39c-6.12,-81.15 445.14,-1004.05 782.95,-953.6 -159.63,275.87 -398.44,604.65 -272.16,618.23 56.45,6.1 201.22,-96.73 345.76,-720.98 23.19,1.4 291.19,1119.16 -856.55,1056.35z"/>
    <path class="fil1" d="M5234.37 11267.36c76.59,-659.3 238.25,-765.67 574,-862.99 -444.79,409.56 -179.48,605.58 -182.53,510.79 -4.62,-143.4 61.09,-317.63 380.3,-412.25 -187.53,539.61 -428.02,709.54 -771.77,764.45z"/>
    <path class="fil1" d="M7846.99 10796.02c-154.81,-547.68 435.97,-651.44 464.76,-704.99 -991.71,-331.56 -191.15,-1122.81 515.98,-901.76 474.22,148.25 64.52,686.61 -292.73,870.85 597.07,325.45 163.43,541.99 865.69,566.11 210.94,-180.03 524.95,-143.2 481.03,30.07 -33.29,131.42 -277.03,195.1 -394.02,137.95 -32.51,-15.88 -118.16,-8.56 -154.96,18.11 -56.59,41.04 -139.05,131.8 -246.87,174.46 -606.31,239.88 -1129.92,194.6 -1238.88,-190.8z"/>
    <path class="fil1" d="M14362.57 10348.62c7.08,-310.9 342.16,-586.13 609.24,-274.83 -137.08,-20.49 -342.74,37.3 -257.64,239.83 34.77,82.69 -291.9,75.2 -351.6,35z"/>
    <path class="fil1" d="M11969.54 8953.89c450.54,12.07 667.08,195.94 878.05,643.31 147.68,313.13 179.2,468.64 642.88,753.54 -651.35,5.45 -993.97,-302.23 -1083.54,-637.04 -79.24,-296.31 -92.5,-531.43 -437.39,-759.81z"/>
    <path class="fil1" d="M12554.22 8939.14c303.13,-88.98 542.98,167.99 612.93,490.3 -11.12,-380.18 206.27,-508.52 438.05,-501.96 -705.65,647.02 -70.32,1309.19 717.32,1281.51 -11.2,48.87 -22.17,96.85 -22.96,144.85 -371.99,20.93 -726.81,-59.9 -1000.04,-332.52 -374.75,-373.91 -369.67,-865.37 -745.3,-1082.18z"/>
    <path class="fil1" d="M11239.45 8898.25c506.29,-22.32 784.86,247.54 909.75,796.79 60.57,266.37 281.96,499.35 528.75,641.48 -387.49,-1.05 -653.76,-49.95 -820.76,-264.38 -317.49,-407.7 -245.97,-899.62 -617.74,-1173.89z"/>
    <path class="fil1" d="M6263.34 10097.04c46.53,-12.74 378.15,-741.64 1016.82,-519.2 -327.77,56.22 -447.43,292.03 -454.13,427.34 136.09,65.04 516.36,-484 774.72,-407.98 -154.02,722.05 -949.16,811.35 -1337.41,499.84z"/>
    <path class="fil1" d="M10006.09 9343.91c-493.95,-328.49 -826.68,31.66 -958.91,418.46 156.49,62.17 341.49,92.44 527.07,121.2 373.74,57.93 627.49,-151.79 431.84,-539.66z"/>
    <path class="fil1" d="M5658.52 10000.97c26.5,-383.52 445.69,-937.37 789.76,-744.77 -165.84,102.07 -326.54,257.15 -406.01,391.76 -29.37,49.75 -1.39,109.19 13.84,127.91 306.73,-322.31 425.06,-463.57 724.64,-295.06 -397.86,46.58 -556.94,754.27 -1122.23,520.16z"/>
    <path class="fil1" d="M7074.55 9391.91c251.7,-226.96 524.4,-631.7 84.09,-624.3 -200.96,3.4 -446.71,-62.05 -675.3,-285.82 186.13,88.84 342.92,136.64 523.15,107.5 190.25,-30.76 328.35,-72.88 451.12,-49.02 629.75,122.39 361.02,834.66 -383.06,851.64z"/>
    <path class="fil1" d="M7983.58 9211.07c33.81,-526.26 289.94,-685.25 821.48,-425.52 -449.55,248.24 -477.99,-46.7 -821.48,425.52z"/>
    <path class="fil1" d="M6293.85 8358.12c146.89,428.76 597.28,294.3 435.27,781.4 -265.19,170.78 -556.56,-360.01 -435.27,-781.4z"/>
    <path class="fil1" d="M8973.89 8926.2l770.52 -0.47c66.29,-0.05 78.77,41.74 77.09,86.15 -1.6,41.79 -10.13,86.34 -77.09,86.49l-768.92 1.65c-46.73,0 -69.25,-38.22 -70.99,-78.83 -1.95,-46 22.81,-95.05 69.39,-94.99z"/>
    <path class="fil1" d="M2187.35 8918.36l6.18 -1049.87c-86.26,70.7 -356.96,614.75 -388.86,747.79 137.08,56.43 279.85,150.84 382.68,302.08z"/>
    <path class="fil2" d="M6402.16 8004.96c-7.28,-563.03 -30.5,-1103.86 -77.72,-1648.63 -54.62,-316.07 -225.92,-1223.32 -352.55,-1480.01 1012.17,-27.8 1273.5,550.61 1269.14,1427.01l285.45 0.96 0.52 701.59 1241.29 2.23 1.71 -703.27 278.95 -0.06c-7.66,-815.77 359.17,-1563.33 1317.99,-1361.85 -417.94,947.6 -441.77,2038.25 -492.27,3062.64l-3472.51 -0.61z"/>
    <path class="fil1" d="M6492.57 7899.11c-15.61,-1027.96 -103.53,-1919.83 -373.65,-2891.66 851.06,128 706.7,1251.21 722.08,1864.31 118.21,-29.9 112.5,-210.54 239.53,-209.87l-1.27 909.86c178.14,-100.39 830.74,-432.74 1057.68,-282.34l-3.8 606.24 -1640.57 3.46z"/>
    <path class="fil1" d="M8150.23 7247.47l0.03 -135.45 693.64 0.37 4 -719.99 296.59 -0.4c53.06,-867.26 258.46,-1423.15 1103.05,-1377.55 -614.81,206.15 -707.8,765.06 -707.45,1335.14l0.4 628.51c-60.42,-257.27 -181.57,-299.2 -227.34,-292.88l-1.62 1051.79c-229.12,-485.3 -740.63,-497.93 -1161.3,-489.54z"/>
    <path class="fil2" d="M7717.75 3262.14c112.49,-344.1 257.32,-704.81 496.54,-980.13 173.21,251.99 324.77,574.18 420.49,974.15 214.05,1010.23 199.31,1770.42 -109.62,2784.59 -143.93,413.39 -315.63,754.12 -382.45,784.34 -48.18,21.79 -204.73,-347.82 -379.77,-799.05 -299.85,-772.99 -299.7,-1985.31 -45.19,-2763.9z"/>
    <path class="fil1" d="M8204.21 2410.36l-63.73 4299.53c-247.6,-517.11 -479.21,-1289.34 -493.75,-1864.45 -21.39,-844.88 183.25,-1774.74 557.48,-2435.08z"/>
    <path class="fil2" d="M1313.18 22847.34c-1.88,-909.86 -3.97,-1819.75 -5.98,-2729.62l18495.31 0c-4.09,931.29 -6.16,1862.57 -8.16,2793.85 -125.35,758.65 -522.8,967.33 -1227.47,968.17 -1572.59,1.89 -3144.54,3.92 -4714.75,7.55 -86.4,-514.33 -903.01,-595.13 -1119.53,-597.71l-8.62 -2787.12 -895.84 -3.86 1.19 2243.82c-202.27,-5.34 -813.56,93.84 -818.53,-439.33l-7.86 -1245.32 -826.94 -2.67c5.39,285.8 -5.2,802.91 1.79,1089.78 17.1,702.55 1174.88,778.07 1654.12,758.13l-2.52 408.91 817.48 -0.46c200.52,27.14 476.28,316.76 215.47,560.8l-9912.34 6.73c-604.45,-0.38 -1635.28,-287.07 -1636.82,-1031.65z"/>
    <path class="fil1" d="M19568.81 21955.53l-831.56 -3.42 -12.77 850.77c-8.15,543.47 -852.68,429.29 -851.15,8.39 4.12,-1140.58 2.5,-1096.17 17.1,-1397.96 -2005.94,14.31 -613.97,-888.59 -604.39,-904.87 -265.63,0.58 -530.81,3.11 -796.21,5.72 -956.38,210.3 -730.26,925.56 523.85,888.07l12.92 1464.24c2.09,235.96 651.81,497.96 1317.82,486.2 801.51,-14.16 1200.42,-394.86 1203.06,-505.62l21.33 -891.52z"/>
    <path class="fil1" d="M15984.24 23346.99l3.43 -841.89c0.23,-49.49 -85.04,-224.07 -282.14,-272.65l-1.74 457.61c-1.17,301.56 -471.87,642.73 -1315.5,652.66 -555.05,6.53 -1270.51,-334.18 -1274.61,-634.81l-11.84 -2204.9 848.34 3.72 0.49 2175.58c0.17,669.81 880.72,714.45 880.05,11.44l-2.17 -2190.3 878.02 -0.9 -1.16 1616.53c414.28,7.9 1188.58,370.11 1194.64,625.23l14.37 601.86 -930.18 0.82z"/>
    <path class="fil1" d="M1590.21 22728.52l-14.8 -2233.37 882.73 3.8 2.78 434.86c505.36,9.52 1788.18,-35.87 1753.03,747.19l-846.97 4.76c-41.33,-595.1 -418.84,-641.72 -904.98,-641.92 2.9,615.88 5.48,1169.83 10.27,1787.68 1.74,223.55 216.87,368.29 452.74,366.31 266.09,-2.23 440.29,-107.18 442.09,-375.27l5.86 -862.62 840.12 0.7 -3.97 782.94c-128.4,344.02 -496.71,601.72 -1279.05,595.69 -874.31,-6.74 -1336.77,-427.73 -1339.85,-610.75z"/>
    <path class="fil1" d="M4515.77 23322.11l863.83 -11.52 26.12 -2236.91c1.72,-146.78 135.08,-452.83 392.46,-452.48 313.25,0.4 391.27,338.15 390.83,471.05l-2.61 789.79 888.68 4.85 -3.83 -874.54c-1.16,-261.15 -608.43,-558.71 -1242.1,-548.72 -631.03,9.93 -1262.21,187.9 -1283.22,525.24l-30.16 2333.24z"/>
    <path class="fil1" d="M7378.23 22745.35l-14.8 -2233.37 882.72 3.8 2.82 434.87c505.33,9.52 1788.15,-35.88 1753.03,747.18l-847 4.76c-41.3,-595.1 -418.84,-641.71 -904.99,-641.92 2.91,615.89 5.52,1169.86 10.31,1787.69 1.74,223.54 216.83,368.28 452.71,366.31 266.12,-2.21 440.29,-107.19 442.12,-375.28l5.83 -862.61 840.15 0.69 1.97 785.73c-128.4,344.02 -502.66,598.94 -1284.99,592.9 -874.34,-6.73 -1336.8,-427.72 -1339.88,-610.75z"/>
   </g>
  </g>
 </g>
</svg>
